<svg x="0px" y="0px" width="700" slot="logo-app" id="Layer_1" style="height:auto" viewBox="0 0 1373 227" xml:space="preserve" xmlns="http://www.w3.org/2000/svg">
  <g id="Group">
    <g id="Layer1">
      <linearGradient id="linearGradient1" x1="29.38" y1="221.81" x2="193.23" y2="57.96" gradientUnits="userSpaceOnUse">
        <stop offset="1e-05" stop-color="#25316a" stop-opacity="1"/>
        <stop offset="0.08" stop-color="#293268" stop-opacity="1"/>
        <stop offset="0.16" stop-color="#353564" stop-opacity="1"/>
        <stop offset="0.24" stop-color="#493b5d" stop-opacity="1"/>
        <stop offset="0.32" stop-color="#654352" stop-opacity="1"/>
        <stop offset="0.4" stop-color="#8a4d45" stop-opacity="1"/>
        <stop offset="0.48" stop-color="#b75a35" stop-opacity="1"/>
        <stop offset="0.55" stop-color="#eb6923" stop-opacity="1"/>
        <stop offset="0.56" stop-color="#f26b21" stop-opacity="1"/>
        <stop offset="1" stop-color="#9c9c9c" stop-opacity="1"/>
      </linearGradient>
      <path id="Path" fill="url(#linearGradient1)" stroke="none" d="M 169.139999 95.259995 L 169.139999 33.859985 L 111.309998 0.470001 L 53.480003 33.859985 L 53.480003 95.270004 L 0.310001 125.970001 L 0.310001 192.75 L 58.139999 226.140015 L 111.309998 195.440002 L 164.479996 226.140015 L 222.309998 192.75 L 222.309998 125.970001 L 169.139999 95.270004 Z M 106.649994 181.850006 L 62.790001 156.529999 L 62.790001 106.009995 L 106.649994 131.330002 L 106.649994 181.839996 Z M 67.339996 97.889999 L 111.300003 72.509995 L 155.259995 97.889999 L 111.300003 123.270004 L 67.339996 97.889999 Z M 115.970001 131.339996 L 159.820007 106.020004 L 159.820007 156.529999 L 115.970001 181.850006 L 115.970001 131.339996 Z M 62.790001 39.23999 L 111.300003 11.230011 L 159.809998 39.23999 L 159.809998 89.759995 L 111.300003 61.75 L 62.790001 89.759995 L 62.790001 39.23999 Z M 58.139999 215.369995 L 9.630001 187.359985 L 9.630001 131.339996 L 53.480003 106.020004 L 53.480003 161.910004 L 102.110001 189.98999 L 58.139999 215.369995 Z M 212.990005 187.359985 L 164.479996 215.369995 L 120.509995 189.980011 L 169.139999 161.910004 L 169.139999 106.020004 L 213 131.339996 L 213 187.359985 Z"/>
      <g id="g1">
        <path id="path1" fill="#26306a" stroke="none" d="M 407.529999 192.600006 L 369.179993 192.600006 L 344.75 134.75 L 317.579987 134.75 L 317.579987 192.600006 L 280.220001 192.600006 L 280.220001 34.160004 L 349.579987 34.160004 C 362.799988 34.160004 373.5 36.299988 381.679993 40.570007 C 389.859985 44.839996 395.850006 50.690002 399.649994 58.100006 C 403.450012 65.520004 405.350006 73.929993 405.350006 83.360001 C 405.350006 91.610001 404.179993 98.610001 401.839996 104.339996 C 399.5 110.080002 396.339996 114.899994 392.359985 118.800003 C 388.380005 122.710007 383.899994 126.009995 378.940002 128.720001 L 407.540009 192.600006 Z M 344.420013 106.580002 C 351.429993 106.580002 357.079987 104.350006 361.350006 99.899994 C 365.619995 95.440002 367.76001 90.149994 367.76001 84.009995 C 367.76001 77.869995 365.570007 72.339996 361.190002 68.289993 C 356.809998 64.240005 351.579987 62.210007 345.519989 62.210007 L 317.579987 62.210007 L 317.579987 106.589996 L 344.429993 106.589996 Z"/>
        <path id="path2" fill="#26306a" stroke="none" d="M 434.600006 34.160004 L 471.959991 34.160004 L 471.959991 192.600006 L 434.600006 192.600006 L 434.600006 34.160004 Z"/>
        <path id="path3" fill="#26306a" stroke="none" d="M 504.390015 192.600006 L 504.390015 34.160004 L 564.97998 34.160004 C 576.52002 34.160004 586.929993 36.209991 596.210022 40.299988 C 605.48999 44.390015 612.809998 50.359985 618.179993 58.220001 C 623.549988 66.070007 626.22998 75.660004 626.22998 86.979996 C 626.22998 97.5 623.909973 106.479996 619.27002 113.940002 C 614.630005 121.389999 608.090027 127.110001 599.659973 131.089996 C 591.219971 135.070007 581.27002 137.059998 569.799988 137.059998 L 541.859985 137.059998 L 541.859985 192.609985 L 504.390015 192.609985 Z M 541.539978 108.779999 L 568.710022 108.779999 C 575.359985 108.779999 580.849976 106.419998 585.200012 101.710007 C 589.549988 97 591.719971 91.429993 591.719971 85 C 591.719971 78.570007 589.400024 72.889999 584.76001 68.619995 C 580.119995 64.350006 574.659973 62.210007 568.380005 62.210007 L 541.530029 62.210007 L 541.530029 108.779999 Z"/>
        <path id="path4" fill="#26306a" stroke="none" d="M 648.919983 192.600006 L 648.919983 34.160004 L 761.890015 34.160004 L 761.669983 65.279999 L 686.5 65.279999 L 686.5 97.600006 L 750.599976 97.600006 L 750.599976 128.059998 L 686.280029 128.059998 L 686.280029 161.149994 L 762.539978 161.259995 L 762.539978 192.600006 L 648.909973 192.600006 Z"/>
        <path id="path5" fill="#26306a" stroke="none" d="M 822.47998 192.600006 L 878.909973 34.160004 L 917.590027 34.160004 L 974.02002 192.600006 L 936.97998 192.600006 L 925.26001 158.960007 L 871.789978 158.960007 L 859.849976 192.600006 L 822.48999 192.600006 Z M 879.890015 126.75 L 916.599976 126.75 L 898.409973 69.990005 L 879.890015 126.75 Z"/>
        <path id="path6" fill="#26306a" stroke="none" d="M 1056.300049 104.830002 L 1031.430054 104.830002 L 1031.540039 160.710007 C 1031.540039 162.970001 1031.890015 164.649994 1032.579956 165.75 C 1033.27002 166.850006 1034.23999 167.580002 1035.47998 167.940002 C 1036.719971 168.309998 1038.26001 168.490005 1040.079956 168.490005 L 1056.52002 168.490005 L 1056.52002 190.950012 C 1054.98999 191.609985 1052.609985 192.299988 1049.400024 193.029999 C 1046.180054 193.76001 1041.469971 194.130005 1035.26001 194.130005 C 1024.380005 194.130005 1015.959961 192.73999 1010 189.970001 C 1004.040039 187.190002 999.920044 183.410004 997.619995 178.630005 C 995.319946 173.850006 994.170044 168.419998 994.170044 162.360001 L 994.170044 104.830002 L 975.76001 104.830002 L 975.76001 79.300003 L 995.47998 79.300003 L 1005.01001 44.570007 L 1031.420044 44.570007 L 1031.420044 79.089996 L 1056.290039 79.089996 L 1056.290039 104.839996 Z"/>
        <path id="path7" fill="#26306a" stroke="none" d="M 1117.119995 194.790009 C 1107.699951 194.790009 1100.300049 193.730011 1094.930054 191.609985 C 1089.560059 189.48999 1085.630005 186.730011 1083.150024 183.339996 C 1080.670044 179.940002 1079.099976 176.160004 1078.439941 172 C 1077.780029 167.839996 1077.449951 163.710007 1077.449951 159.619995 L 1077.449951 29.769989 L 1114.050049 29.769989 L 1114.050049 154.789993 C 1114.050049 158.220001 1114.849976 161.199997 1116.459961 163.720001 C 1118.069946 166.240005 1121.540039 167.830002 1126.869995 168.490005 L 1131.800049 168.820007 L 1131.800049 191.720001 C 1129.459961 192.519989 1127.050049 193.23999 1124.569946 193.859985 C 1122.089966 194.480011 1119.599976 194.790009 1117.119995 194.790009 Z"/>
        <path id="path8" fill="#26306a" stroke="none" d="M 1183.73999 194.790009 C 1176.650024 194.790009 1170.170044 193.420013 1164.290039 190.679993 C 1158.410034 187.940002 1153.72998 183.940002 1150.26001 178.679993 C 1146.790039 173.419998 1145.050049 166.990005 1145.050049 159.399994 C 1145.050049 147.059998 1149.819946 137.559998 1159.349976 130.910004 C 1168.880005 124.259995 1183.800049 120.899994 1204.109985 120.830002 L 1215.609985 120.720001 L 1215.609985 114.910004 C 1215.609985 110.449997 1214.349976 107.110001 1211.829956 104.880005 C 1209.310059 102.649994 1205.349976 101.610001 1199.939941 101.759995 C 1196.219971 101.759995 1192.420044 102.619995 1188.540039 104.330002 C 1184.670044 106.050003 1181.890015 109.210007 1180.209961 113.809998 L 1149.640015 113.809998 C 1150.079956 105.259995 1152.619995 98.289993 1157.26001 92.880005 C 1161.900024 87.470001 1168.069946 83.490005 1175.780029 80.940002 C 1183.48999 78.380005 1192.119995 77.110001 1201.689941 77.110001 C 1214.030029 77.110001 1223.819946 78.589996 1231.060059 81.550003 C 1238.290039 84.509995 1243.47998 88.639999 1246.619995 93.929993 C 1249.76001 99.229996 1251.329956 105.449997 1251.329956 112.610001 L 1251.329956 192.600006 L 1220.319946 192.600006 L 1217.030029 173.860001 C 1213.449951 181.820007 1208.97998 187.299988 1203.609985 190.299988 C 1198.23999 193.290009 1191.609985 194.790009 1183.719971 194.790009 Z M 1196.660034 170.789993 C 1199.140015 170.789993 1201.52002 170.350006 1203.780029 169.470001 C 1206.040039 168.589996 1208.030029 167.369995 1209.75 165.800003 C 1211.459961 164.229996 1212.849976 162.5 1213.910034 160.600006 C 1214.969971 158.699997 1215.530029 156.649994 1215.609985 154.460007 L 1215.609985 139.009995 L 1206.410034 139.119995 C 1202.609985 139.119995 1198.689941 139.649994 1194.630005 140.710007 C 1190.579956 141.770004 1187.160034 143.470001 1184.380005 145.800003 C 1181.599976 148.139999 1180.219971 151.389999 1180.219971 155.550003 C 1180.219971 160.300003 1181.839966 164.029999 1185.099976 166.729996 C 1188.349976 169.429993 1192.199951 170.779999 1196.660034 170.779999 Z"/>
        <path id="path9" fill="#26306a" stroke="none" d="M 1322.449951 194.790009 C 1314.560059 194.790009 1306.849976 193.480011 1299.329956 190.850006 C 1291.800049 188.220001 1285.380005 184.019989 1280.040039 178.25 C 1274.709961 172.479996 1271.27002 164.960007 1269.73999 155.679993 L 1301.73999 155.679993 C 1302.689941 159.550003 1304.410034 162.509995 1306.890015 164.559998 C 1309.369995 166.610001 1312.040039 167.990005 1314.890015 168.720001 C 1317.73999 169.449997 1320.189941 169.820007 1322.22998 169.820007 C 1327.630005 169.820007 1332.02002 169.050003 1335.380005 167.520004 C 1338.73999 165.990005 1340.420044 163.649994 1340.420044 160.509995 C 1340.420044 157.880005 1339.380005 155.820007 1337.300049 154.320007 C 1335.219971 152.820007 1331.619995 151.639999 1326.51001 150.759995 L 1308.099976 147.360001 C 1297.650024 145.389999 1289.25 141.75 1282.900024 136.460007 C 1276.540039 131.160004 1273.329956 123.660004 1273.26001 113.940002 C 1273.189941 107 1275.050049 100.759995 1278.849976 95.199997 C 1282.650024 89.649994 1288.23999 85.25 1295.609985 82 C 1302.98999 78.75 1312.050049 77.119995 1322.780029 77.119995 C 1337.459961 77.119995 1349.150024 80.330002 1357.839966 86.759995 C 1366.530029 93.190002 1370.920044 102.059998 1370.98999 113.389999 L 1340.310059 113.389999 C 1339.51001 109.520004 1337.439941 106.580002 1334.119995 104.570007 C 1330.790039 102.559998 1326.829956 101.559998 1322.22998 101.559998 C 1317.630005 101.559998 1313.630005 102.350006 1310.449951 103.919998 C 1307.27002 105.490005 1305.680054 107.850006 1305.680054 110.990005 C 1305.680054 113.399994 1307.069946 115.339996 1309.839966 116.800003 C 1312.619995 118.259995 1317.030029 119.580002 1323.099976 120.740005 L 1339.650024 124.139999 C 1346.439941 125.820007 1351.959961 128.070007 1356.189941 130.880005 C 1360.430054 133.690002 1363.699951 136.740005 1366 140.029999 C 1368.300049 143.320007 1369.890015 146.589996 1370.77002 149.839996 C 1371.650024 153.089996 1372.089966 155.960007 1372.089966 158.440002 C 1372.089966 166.259995 1369.930054 172.869995 1365.630005 178.269989 C 1361.319946 183.679993 1355.420044 187.790009 1347.930054 190.600006 C 1340.439941 193.410004 1331.949951 194.820007 1322.449951 194.820007 Z"/>
      </g>
    </g>
  </g>
</svg>
